<svg width="119" height="43" viewBox="0 0 119 43" fill="none" xmlns="http://www.w3.org/2000/svg">
<g clip-path="url(#clip0_343_1459)">
<path d="M41.3133 21.1538L33.7918 18.6345L35.6183 30.318L35.9237 30.4367L42.0529 24.3076C42.2838 24.0789 42.4522 23.7948 42.542 23.4825C42.6318 23.1702 42.64 22.8401 42.5658 22.5237C42.4916 22.2073 42.3375 21.9152 42.1182 21.6754C41.8989 21.4356 41.6218 21.256 41.3133 21.1538Z" fill="white"/>
<path d="M35.3579 18.293L34.2211 18.4528L35.8124 29.7755L36.9492 29.6157L35.3579 18.293Z" fill="black"/>
<path d="M29.0733 35.0867L28.5628 30.7069C28.5047 30.2613 28.4204 29.8196 28.3103 29.3839C28.2142 28.9695 28.0982 28.5057 27.9624 27.9965C28.1524 28.1083 28.3473 28.2165 28.5472 28.3211C28.9911 28.5539 29.4476 28.7617 29.9148 28.9434L33.1399 30.173L31.3672 18.3495L27.4809 17.0696L26.1522 2.39505C26.1195 2.05106 25.9891 1.72359 25.7764 1.45128C25.5637 1.17897 25.2775 0.973163 24.9517 0.858112C24.6259 0.743062 24.274 0.723569 23.9374 0.801942C23.6009 0.880315 23.2937 1.05328 23.0523 1.30044L16.5094 7.84329L17.1366 11.8024C17.2224 12.4157 17.3443 13.0235 17.5015 13.6225C17.559 13.8337 17.6215 14.0376 17.6889 14.2341C17.415 14.0913 17.1373 13.9551 16.8559 13.8254C16.327 13.5794 15.7847 13.3411 15.2374 13.119L12.3163 12.0364L11.9967 12.356L13.698 23.7079L17.8254 25.0437L19.1215 40.827C19.151 41.1728 19.2792 41.5028 19.4909 41.7778C19.7026 42.0529 19.9888 42.2612 20.3156 42.3782C20.6423 42.4952 20.9958 42.5158 21.334 42.4376C21.6721 42.3594 21.9806 42.1857 22.2229 41.9372L29.0733 35.0867Z" fill="white"/>
<path d="M13.2353 12.0945L12.0985 12.2543L13.6898 23.577L14.8266 23.4172L13.2353 12.0945Z" fill="black"/>
<path d="M9.3797 11.9296L2.34892 18.9604C2.11802 19.1898 1.94992 19.4746 1.86073 19.7876C1.77153 20.1007 1.76424 20.4313 1.83955 20.748C1.91486 21.0646 2.07024 21.3566 2.29081 21.5959C2.51138 21.8353 2.78973 22.0139 3.09918 22.1148L11.3971 24.8478L9.3797 11.9296Z" fill="white"/>
<path d="M59.7969 35.222C57.8169 35.222 55.9969 34.762 54.3369 33.842C52.6969 32.922 51.3869 31.642 50.4069 30.002C49.4469 28.342 48.9669 26.482 48.9669 24.422C48.9669 22.362 49.4469 20.512 50.4069 18.872C51.3869 17.232 52.6969 15.952 54.3369 15.032C55.9969 14.112 57.8169 13.652 59.7969 13.652C61.7769 13.652 63.5869 14.112 65.2269 15.032C66.8869 15.952 68.1869 17.232 69.1269 18.872C70.0869 20.512 70.5669 22.362 70.5669 24.422C70.5669 26.482 70.0869 28.342 69.1269 30.002C68.1669 31.642 66.8669 32.922 65.2269 33.842C63.5869 34.762 61.7769 35.222 59.7969 35.222ZM59.7969 30.542C61.4769 30.542 62.8169 29.982 63.8169 28.862C64.8369 27.742 65.3469 26.262 65.3469 24.422C65.3469 22.562 64.8369 21.082 63.8169 19.982C62.8169 18.862 61.4769 18.302 59.7969 18.302C58.0969 18.302 56.7369 18.852 55.7169 19.952C54.7169 21.052 54.2169 22.542 54.2169 24.422C54.2169 26.282 54.7169 27.772 55.7169 28.892C56.7369 29.992 58.0969 30.542 59.7969 30.542ZM72.4009 26.612C72.4009 24.892 72.7209 23.382 73.3609 22.082C74.0209 20.782 74.9109 19.782 76.0309 19.082C77.1509 18.382 78.4009 18.032 79.7809 18.032C80.8809 18.032 81.8809 18.262 82.7809 18.722C83.7009 19.182 84.4209 19.802 84.9409 20.582V12.812H90.0709V35.012H84.9409V32.612C84.4609 33.412 83.7709 34.052 82.8709 34.532C81.9909 35.012 80.9609 35.252 79.7809 35.252C78.4009 35.252 77.1509 34.902 76.0309 34.202C74.9109 33.482 74.0209 32.472 73.3609 31.172C72.7209 29.852 72.4009 28.332 72.4009 26.612ZM84.9409 26.642C84.9409 25.362 84.5809 24.352 83.8609 23.612C83.1609 22.872 82.3009 22.502 81.2809 22.502C80.2609 22.502 79.3909 22.872 78.6709 23.612C77.9709 24.332 77.6209 25.332 77.6209 26.612C77.6209 27.892 77.9709 28.912 78.6709 29.672C79.3909 30.412 80.2609 30.782 81.2809 30.782C82.3009 30.782 83.1609 30.412 83.8609 29.672C84.5809 28.932 84.9409 27.922 84.9409 26.642ZM96.3622 16.532C95.4622 16.532 94.7222 16.272 94.1422 15.752C93.5822 15.212 93.3022 14.552 93.3022 13.772C93.3022 12.972 93.5822 12.312 94.1422 11.792C94.7222 11.252 95.4622 10.982 96.3622 10.982C97.2422 10.982 97.9622 11.252 98.5222 11.792C99.1022 12.312 99.3922 12.972 99.3922 13.772C99.3922 14.552 99.1022 15.212 98.5222 15.752C97.9622 16.272 97.2422 16.532 96.3622 16.532ZM98.9122 18.272V35.012H93.7822V18.272H98.9122ZM112.53 35.012L109.32 30.362L106.62 35.012H101.07L106.59 26.462L100.92 18.272H106.68L109.89 22.892L112.59 18.272H118.14L112.53 26.702L118.29 35.012H112.53Z" fill="white"/>
</g>
<defs>
<clipPath id="clip0_343_1459">
<rect width="119" height="43" fill="white"/>
</clipPath>
</defs>
</svg>
